<svg xmlns="http://www.w3.org/2000/svg" viewBox="0 0 900 560" font-family="Noto Sans TC, PingFang TC, Microsoft JhengHei, sans-serif">
<defs><linearGradient id="bg" x1="0" y1="0" x2="1" y2="1"><stop offset="0" stop-color="#1a1430"/><stop offset="1" stop-color="#0f0b1e"/></linearGradient></defs>
<rect width="900" height="560" fill="url(#bg)"/><circle cx="441.4" cy="314.0" r="0.46" fill="#e2ccff" opacity="0.35"/><circle cx="398.9" cy="283.6" r="0.41" fill="#e2ccff" opacity="0.73"/><circle cx="530.5" cy="230.1" r="0.70" fill="#e2ccff" opacity="0.67"/><circle cx="591.7" cy="42.9" r="1.00" fill="#e2ccff" opacity="0.34"/><circle cx="604.8" cy="88.5" r="1.08" fill="#e2ccff" opacity="0.49"/><circle cx="158.6" cy="28.0" r="1.61" fill="#e2ccff" opacity="0.78"/><circle cx="108.7" cy="248.8" r="1.64" fill="#e2ccff" opacity="0.31"/><circle cx="377.3" cy="308.2" r="1.24" fill="#e2ccff" opacity="0.37"/><circle cx="153.3" cy="551.9" r="0.92" fill="#e2ccff" opacity="0.34"/><circle cx="492.3" cy="185.0" r="0.52" fill="#e2ccff" opacity="0.66"/><circle cx="316.5" cy="196.0" r="0.41" fill="#e2ccff" opacity="0.76"/><circle cx="214.8" cy="495.1" r="0.96" fill="#e2ccff" opacity="0.34"/><circle cx="542.7" cy="225.0" r="1.36" fill="#e2ccff" opacity="0.59"/><circle cx="122.4" cy="125.4" r="0.93" fill="#e2ccff" opacity="0.25"/><circle cx="42.9" cy="230.9" r="1.25" fill="#e2ccff" opacity="0.59"/><circle cx="859.7" cy="182.0" r="0.91" fill="#e2ccff" opacity="0.50"/><circle cx="395.0" cy="469.5" r="0.93" fill="#e2ccff" opacity="0.46"/><circle cx="237.7" cy="132.6" r="1.34" fill="#e2ccff" opacity="0.28"/><circle cx="243.3" cy="429.3" r="1.50" fill="#e2ccff" opacity="0.78"/><circle cx="834.2" cy="481.8" r="1.35" fill="#e2ccff" opacity="0.58"/><circle cx="499.1" cy="13.5" r="0.75" fill="#e2ccff" opacity="0.41"/><circle cx="193.6" cy="220.4" r="1.26" fill="#e2ccff" opacity="0.64"/><circle cx="240.0" cy="535.6" r="0.31" fill="#e2ccff" opacity="0.42"/><circle cx="527.2" cy="247.0" r="0.43" fill="#e2ccff" opacity="0.79"/><circle cx="410.6" cy="488.5" r="1.12" fill="#e2ccff" opacity="0.48"/><circle cx="112.6" cy="444.2" r="1.55" fill="#e2ccff" opacity="0.36"/><circle cx="22.0" cy="86.5" r="1.29" fill="#e2ccff" opacity="0.62"/><circle cx="594.3" cy="487.0" r="0.62" fill="#e2ccff" opacity="0.70"/><circle cx="151.8" cy="20.9" r="0.41" fill="#e2ccff" opacity="0.21"/><circle cx="483.4" cy="465.2" r="1.48" fill="#e2ccff" opacity="0.29"/><circle cx="444.6" cy="29.1" r="0.69" fill="#e2ccff" opacity="0.49"/><circle cx="57.7" cy="199.2" r="0.62" fill="#e2ccff" opacity="0.38"/><circle cx="711.5" cy="76.5" r="0.53" fill="#e2ccff" opacity="0.20"/><circle cx="561.6" cy="48.4" r="0.86" fill="#e2ccff" opacity="0.27"/><circle cx="430.2" cy="232.2" r="0.31" fill="#e2ccff" opacity="0.65"/><circle cx="406.3" cy="413.8" r="0.77" fill="#e2ccff" opacity="0.76"/><circle cx="645.3" cy="357.9" r="0.68" fill="#e2ccff" opacity="0.42"/><circle cx="69.4" cy="493.4" r="0.42" fill="#e2ccff" opacity="0.24"/><circle cx="167.7" cy="170.3" r="0.34" fill="#e2ccff" opacity="0.56"/><circle cx="395.6" cy="211.2" r="1.06" fill="#e2ccff" opacity="0.74"/><circle cx="475.3" cy="236.1" r="0.47" fill="#e2ccff" opacity="0.74"/><circle cx="595.8" cy="279.3" r="1.57" fill="#e2ccff" opacity="0.61"/><circle cx="412.6" cy="541.6" r="1.54" fill="#e2ccff" opacity="0.45"/><circle cx="447.9" cy="393.6" r="1.40" fill="#e2ccff" opacity="0.75"/><circle cx="490.6" cy="554.4" r="1.19" fill="#e2ccff" opacity="0.70"/><circle cx="396.2" cy="42.3" r="1.66" fill="#e2ccff" opacity="0.53"/><circle cx="587.1" cy="219.2" r="1.35" fill="#e2ccff" opacity="0.67"/><circle cx="452.0" cy="248.6" r="1.54" fill="#e2ccff" opacity="0.63"/><circle cx="46.6" cy="206.7" r="0.95" fill="#e2ccff" opacity="0.79"/><circle cx="593.0" cy="86.3" r="1.25" fill="#e2ccff" opacity="0.30"/><circle cx="180.1" cy="295.5" r="0.74" fill="#e2ccff" opacity="0.21"/><circle cx="863.5" cy="288.1" r="0.35" fill="#e2ccff" opacity="0.43"/><circle cx="165.5" cy="368.2" r="0.63" fill="#e2ccff" opacity="0.64"/><circle cx="274.9" cy="508.3" r="1.14" fill="#e2ccff" opacity="0.44"/><circle cx="747.2" cy="99.9" r="0.78" fill="#e2ccff" opacity="0.45"/><circle cx="804.7" cy="318.3" r="0.42" fill="#e2ccff" opacity="0.30"/><circle cx="436.3" cy="140.4" r="0.86" fill="#e2ccff" opacity="0.51"/><circle cx="297.5" cy="15.4" r="0.38" fill="#e2ccff" opacity="0.64"/><circle cx="410.6" cy="309.9" r="1.56" fill="#e2ccff" opacity="0.26"/><circle cx="364.4" cy="125.0" r="0.85" fill="#e2ccff" opacity="0.22"/><circle cx="114.5" cy="408.0" r="1.49" fill="#e2ccff" opacity="0.22"/><circle cx="483.1" cy="156.2" r="0.78" fill="#e2ccff" opacity="0.34"/><circle cx="659.2" cy="275.6" r="0.62" fill="#e2ccff" opacity="0.58"/><circle cx="798.2" cy="530.9" r="0.84" fill="#e2ccff" opacity="0.77"/><circle cx="722.4" cy="230.8" r="0.42" fill="#e2ccff" opacity="0.33"/><circle cx="120.6" cy="405.4" r="1.12" fill="#e2ccff" opacity="0.78"/><circle cx="248.5" cy="197.5" r="0.75" fill="#e2ccff" opacity="0.30"/><circle cx="828.2" cy="346.8" r="1.41" fill="#e2ccff" opacity="0.62"/><circle cx="248.7" cy="327.8" r="0.48" fill="#e2ccff" opacity="0.63"/><circle cx="865.5" cy="341.1" r="0.77" fill="#e2ccff" opacity="0.40"/><circle cx="500.8" cy="317.6" r="0.47" fill="#e2ccff" opacity="0.43"/><circle cx="743.5" cy="416.2" r="1.04" fill="#e2ccff" opacity="0.52"/><circle cx="549.2" cy="215.2" r="0.42" fill="#e2ccff" opacity="0.28"/><circle cx="340.0" cy="516.6" r="1.36" fill="#e2ccff" opacity="0.75"/><circle cx="404.9" cy="483.8" r="0.92" fill="#e2ccff" opacity="0.25"/><circle cx="799.5" cy="192.9" r="0.65" fill="#e2ccff" opacity="0.35"/><circle cx="45.9" cy="197.0" r="0.79" fill="#e2ccff" opacity="0.79"/><circle cx="733.0" cy="344.0" r="1.06" fill="#e2ccff" opacity="0.23"/><circle cx="416.5" cy="87.7" r="0.98" fill="#e2ccff" opacity="0.39"/><circle cx="218.4" cy="292.3" r="1.10" fill="#e2ccff" opacity="0.33"/><circle cx="527.8" cy="370.1" r="0.99" fill="#e2ccff" opacity="0.26"/><circle cx="0.1" cy="272.8" r="0.94" fill="#e2ccff" opacity="0.20"/><circle cx="557.6" cy="55.7" r="0.42" fill="#e2ccff" opacity="0.38"/><circle cx="389.2" cy="375.5" r="1.65" fill="#e2ccff" opacity="0.72"/><circle cx="150.4" cy="1.7" r="1.48" fill="#e2ccff" opacity="0.80"/><circle cx="763.5" cy="420.6" r="1.10" fill="#e2ccff" opacity="0.75"/><circle cx="17.3" cy="173.5" r="1.16" fill="#e2ccff" opacity="0.24"/><circle cx="567.4" cy="207.5" r="0.72" fill="#e2ccff" opacity="0.77"/><circle cx="536.1" cy="80.3" r="1.25" fill="#e2ccff" opacity="0.62"/><circle cx="12.1" cy="137.4" r="0.47" fill="#e2ccff" opacity="0.40"/><circle cx="51.1" cy="143.8" r="1.00" fill="#e2ccff" opacity="0.52"/><circle cx="475.3" cy="528.1" r="0.43" fill="#e2ccff" opacity="0.41"/><circle cx="73.5" cy="80.6" r="0.51" fill="#e2ccff" opacity="0.40"/><circle cx="101.4" cy="183.8" r="0.44" fill="#e2ccff" opacity="0.45"/><circle cx="281.2" cy="457.5" r="0.94" fill="#e2ccff" opacity="0.51"/><circle cx="801.6" cy="376.3" r="0.80" fill="#e2ccff" opacity="0.64"/><circle cx="418.4" cy="140.7" r="1.39" fill="#e2ccff" opacity="0.35"/><circle cx="553.7" cy="241.6" r="0.94" fill="#e2ccff" opacity="0.72"/><circle cx="96.4" cy="278.0" r="0.89" fill="#e2ccff" opacity="0.33"/><circle cx="702.1" cy="388.1" r="0.58" fill="#e2ccff" opacity="0.64"/><circle cx="92.9" cy="253.9" r="1.36" fill="#e2ccff" opacity="0.24"/><circle cx="357.8" cy="158.9" r="0.30" fill="#e2ccff" opacity="0.47"/><circle cx="652.4" cy="179.2" r="0.34" fill="#e2ccff" opacity="0.50"/><circle cx="398.8" cy="307.7" r="0.32" fill="#e2ccff" opacity="0.67"/><circle cx="385.9" cy="392.5" r="1.37" fill="#e2ccff" opacity="0.25"/><circle cx="869.4" cy="447.3" r="1.60" fill="#e2ccff" opacity="0.34"/><circle cx="271.3" cy="216.3" r="1.57" fill="#e2ccff" opacity="0.61"/><circle cx="780.7" cy="231.9" r="0.84" fill="#e2ccff" opacity="0.67"/><circle cx="153.0" cy="445.7" r="1.10" fill="#e2ccff" opacity="0.55"/><circle cx="310.6" cy="353.1" r="0.43" fill="#e2ccff" opacity="0.47"/><circle cx="342.1" cy="50.7" r="1.03" fill="#e2ccff" opacity="0.34"/><circle cx="3.4" cy="547.9" r="1.17" fill="#e2ccff" opacity="0.35"/><circle cx="216.4" cy="531.3" r="0.64" fill="#e2ccff" opacity="0.63"/><circle cx="570.2" cy="222.0" r="1.48" fill="#e2ccff" opacity="0.26"/><circle cx="120.4" cy="7.1" r="1.35" fill="#e2ccff" opacity="0.72"/><circle cx="589.0" cy="4.3" r="0.33" fill="#e2ccff" opacity="0.31"/><circle cx="265.0" cy="559.2" r="0.32" fill="#e2ccff" opacity="0.21"/><circle cx="204.0" cy="316.7" r="1.16" fill="#e2ccff" opacity="0.27"/><circle cx="228.2" cy="265.5" r="0.43" fill="#e2ccff" opacity="0.50"/><circle cx="26.5" cy="315.7" r="1.29" fill="#e2ccff" opacity="0.62"/><circle cx="854.3" cy="170.0" r="1.54" fill="#e2ccff" opacity="0.60"/><circle cx="634.1" cy="8.2" r="0.48" fill="#e2ccff" opacity="0.40"/><circle cx="454.6" cy="424.8" r="1.12" fill="#e2ccff" opacity="0.66"/><circle cx="871.3" cy="500.3" r="0.62" fill="#e2ccff" opacity="0.31"/><circle cx="606.6" cy="165.7" r="1.42" fill="#e2ccff" opacity="0.40"/><circle cx="349.3" cy="139.8" r="0.74" fill="#e2ccff" opacity="0.75"/><circle cx="855.0" cy="1.0" r="0.74" fill="#e2ccff" opacity="0.39"/><circle cx="745.8" cy="551.3" r="1.36" fill="#e2ccff" opacity="0.33"/><circle cx="310.8" cy="394.1" r="1.08" fill="#e2ccff" opacity="0.69"/><circle cx="505.3" cy="165.4" r="1.43" fill="#e2ccff" opacity="0.65"/><circle cx="751.7" cy="418.4" r="1.26" fill="#e2ccff" opacity="0.56"/><circle cx="38.9" cy="441.0" r="1.69" fill="#e2ccff" opacity="0.27"/><circle cx="422.3" cy="246.9" r="0.83" fill="#e2ccff" opacity="0.29"/><circle cx="324.3" cy="140.3" r="0.64" fill="#e2ccff" opacity="0.30"/><circle cx="133.6" cy="93.7" r="0.69" fill="#e2ccff" opacity="0.49"/><circle cx="306.0" cy="58.7" r="1.26" fill="#e2ccff" opacity="0.31"/><circle cx="63.5" cy="90.4" r="0.43" fill="#e2ccff" opacity="0.55"/><circle cx="295.1" cy="285.8" r="0.41" fill="#e2ccff" opacity="0.56"/><circle cx="756.3" cy="534.2" r="0.87" fill="#e2ccff" opacity="0.50"/><circle cx="569.4" cy="82.0" r="1.57" fill="#e2ccff" opacity="0.52"/><rect x="4" y="424" width="217" height="132" rx="10" fill="#1f1838" stroke="#6b55a8" stroke-width="1.5"/>
<text x="112.5" y="499" text-anchor="middle" font-size="26" fill="#e2ccff">命宮</text><rect x="229" y="424" width="217" height="132" rx="10" fill="#1f1838" stroke="#6b55a8" stroke-width="1.5"/>
<text x="337.5" y="499" text-anchor="middle" font-size="26" fill="#e2ccff">父母宮</text><rect x="454" y="424" width="217" height="132" rx="10" fill="#1f1838" stroke="#6b55a8" stroke-width="1.5"/>
<text x="562.5" y="499" text-anchor="middle" font-size="26" fill="#e2ccff">福德宮</text><rect x="679" y="424" width="217" height="132" rx="10" fill="#1f1838" stroke="#6b55a8" stroke-width="1.5"/>
<text x="787.5" y="499" text-anchor="middle" font-size="26" fill="#e2ccff">田宅宮</text><rect x="679" y="284" width="217" height="132" rx="10" fill="#1f1838" stroke="#6b55a8" stroke-width="1.5"/>
<text x="787.5" y="359" text-anchor="middle" font-size="26" fill="#e2ccff">官祿宮</text><rect x="679" y="144" width="217" height="132" rx="10" fill="#1f1838" stroke="#6b55a8" stroke-width="1.5"/>
<text x="787.5" y="219" text-anchor="middle" font-size="26" fill="#e2ccff">交友宮</text><rect x="679" y="4" width="217" height="132" rx="10" fill="#1f1838" stroke="#6b55a8" stroke-width="1.5"/>
<text x="787.5" y="79" text-anchor="middle" font-size="26" fill="#e2ccff">遷移宮</text><rect x="454" y="4" width="217" height="132" rx="10" fill="#1f1838" stroke="#6b55a8" stroke-width="1.5"/>
<text x="562.5" y="79" text-anchor="middle" font-size="26" fill="#e2ccff">疾厄宮</text><rect x="229" y="4" width="217" height="132" rx="10" fill="#1f1838" stroke="#6b55a8" stroke-width="1.5"/>
<text x="337.5" y="79" text-anchor="middle" font-size="26" fill="#e2ccff">財帛宮</text><rect x="4" y="4" width="217" height="132" rx="10" fill="#1f1838" stroke="#6b55a8" stroke-width="1.5"/>
<text x="112.5" y="79" text-anchor="middle" font-size="26" fill="#e2ccff">子女宮</text><rect x="4" y="144" width="217" height="132" rx="10" fill="#1f1838" stroke="#6b55a8" stroke-width="1.5"/>
<text x="112.5" y="219" text-anchor="middle" font-size="26" fill="#e2ccff">夫妻宮</text><rect x="4" y="284" width="217" height="132" rx="10" fill="#1f1838" stroke="#6b55a8" stroke-width="1.5"/>
<text x="112.5" y="359" text-anchor="middle" font-size="26" fill="#e2ccff">兄弟宮</text><rect x="229" y="144" width="442" height="272" rx="14" fill="#160f2c" stroke="#c7a4ff" stroke-width="2"/>
<text x="450" y="266" text-anchor="middle" font-size="44" fill="#c7a4ff">紫微斗數</text>
<text x="450" y="314" text-anchor="middle" font-size="22" fill="#a99fc4">十二宮位示意圖</text></svg>